<?xml version="1.0" encoding="UTF-8"?>
<svg id="Layer_1" xmlns="http://www.w3.org/2000/svg" width="500" height="500" version="1.1" viewBox="0 0 500 500">
  <!-- Generator: Adobe Illustrator 30.8.2, SVG Export Plug-In . SVG Version: 2.1.4 Build 7)  -->
  <defs>
    <style>
      .st0 {
        fill: #ff9e3d;
      }

      .st1 {
        fill: #eb821a;
      }
    </style>
  </defs>
  <path class="st0" d="M217,67.9s-35.4,6.4-53.9,10.7c-18.4,4.3-132.2,47.6-135.1,195.4-2.1,110.8,50.5,141.4,87,160,12.2,6.2,83.7-.6,88.7,1,11.4,3.7,21.1,3.4,38.7,4.3,17.6.9,28.4-1.2,34.4-2.2,6-.9,19.2,4.7,38.7-3.2,28.9-11.8,133.4-7.1,149.5-42.9,26.9-60,12.6-188.5-30-257s-152.9-64-152.9-64c0,0-27.2-23.4-65.2-2.2h0Z"/>
  <path class="st1" d="M139,326s20,97,59,94c0,0-48-52-59-94Z"/>
  <path class="st1" d="M313,416s51-26,52-76c0,0,10,74-52,76Z"/>
  <path class="st1" d="M207,75s-38,9-47,21c0,0,39-8,47-21Z"/>
  <path class="st1" d="M280,77s22,2,27,13,18-1,18-1c0,0-30-19-45-12Z"/>
  <path class="st1" d="M413,144s46,90,45,135c0,0-17-135-45-135Z"/>
  <path class="st1" d="M78,168s-24,51-25,78c0,0-8-58,25-78Z"/>
  <path class="st1" d="M171,117s-34,24-30,65c0,0,16-54,30-65Z"/>
</svg>