<?xml version="1.0" encoding="UTF-8"?>
<svg id="Layer_1" xmlns="http://www.w3.org/2000/svg" width="65" height="65" version="1.1" viewBox="0 0 65 65">
  <!-- Generator: Adobe Illustrator 30.8.2, SVG Export Plug-In . SVG Version: 2.1.4 Build 7)  -->
  <defs>
    <style>
      .st0 {
        fill: #1d171d;
      }

      .st1 {
        fill: #ea5b5c;
      }

      .st2 {
        fill: #fff;
      }

      .st3 {
        fill: #54495e;
      }

      .st4 {
        fill: #e9c9e0;
      }
    </style>
  </defs>
  <path class="st2" d="M19.6,9.4c9.5-6.5,22.1-6.2,31.2.7-.5,1.1-.7,2-1.2,2.4-.7.6-1.7.5-3.2.8.9,1.9,2.7,3.2,5.1,3.7.5-2.1-.2-3.9.2-6.1,7,5.8,10.6,14.7,9.5,23.7-1.2,0-2.7.3-4-.4l-.5-1.9c-.1-.4-1.4,0-1.7-.3-.8-1.8-.7-4.2-3-5.4.2,3,1.2,5.4,3,7.5-.6,2.2-1.2,4-2.3,6.1-.5-.5-1-.9-1.4-1.1-.8-.4-1.4.5-1.9.9-1.3,1-2-.8-2.6-1.2-3.7.5,2,5.6.1,6.3l-6.2,2.4c-1.7.7-3,1.9-5.1,2.1-5.7.6-11.8,0-17.1-2.2-4.1-1.7-6.9-5.3-9.6-8.4-3.2-11.1,1-22.9,10.5-29.4ZM26.6,45.4c8.4,0,15.1-6.8,15.1-15.1,0-8.4-6.8-15.1-15.1-15.1s-15.1,6.8-15.1,15.1c0,8.4,6.8,15.1,15.1,15.1Z"/>
  <path class="st4" d="M9,38.8c3.5,12.2,15.2,20.2,27.9,19.2s22.8-10.9,24.3-23.5c-1.2,0-2.7.3-4-.4l-.5-1.9c-.1-.4-1.4,0-1.7-.3-.8-1.8-.7-4.2-3-5.4.2,3,1.2,5.4,3,7.5-.6,2.2-1.2,4-2.3,6.1-.5-.5-1-.9-1.4-1.1-.8-.4-1.4.5-1.9.9-1.3,1-2-.8-2.6-1.2-3.7.5,2,5.6.1,6.3l-6.2,2.4c-1.7.7-3,1.9-5.1,2.1-5.7.6-11.8,0-17.1-2.2-4.1-1.7-6.9-5.3-9.6-8.4Z"/>
  <path class="st4" d="M50.8,10c-.5,1.1-.7,2-1.2,2.4-.7.6-1.7.5-3.2.8.9,1.9,2.7,3.2,5.1,3.7.5-2.1-.2-3.9.2-6.1-.3-.2-.6-.5-.9-.7Z"/>
  <path class="st1" d="M26.6,15.2c8.4,0,15.1,6.8,15.1,15.1,0,8.4-6.8,15.1-15.1,15.1-8.4,0-15.1-6.8-15.1-15.1,0-8.4,6.8-15.1,15.1-15.1ZM34.6,23.9c.2-1.4-.5-2.6-2-2.9s-2.8.5-3.1,2.1c-.2,0-.4,0-.6,0-2.5-1.5-5.2-1.5-7.8,0s-3.5,3.7-3.5,6.7,1.8,6,4.4,7.3,6.2.9,8.4-1.5c2.4-2.5,2.3-6.1,1.2-9.1,0-.1,0-.3-.1-.4,1.5.1,2.8-.6,3-2Z"/>
  <path class="st0" d="M31.7,26.3c-.9.3-2.4.5-3.2-.5s0-2.1.4-2.8c-2.5-1.5-5.2-1.5-7.8,0s-3.5,3.7-3.5,6.7,1.8,6,4.4,7.3,6.2.9,8.4-1.5c2.4-2.5,2.3-6.1,1.2-9.1Z"/>
  <path class="st2" d="M29.5,23.1c.3,1.1,1,2.1,2.1,2.8,1.5.1,2.8-.6,3-2s-.5-2.6-2-2.9-2.8.5-3.1,2.1Z"/>
  <path class="st3" d="M31.7,26.3c0-.1,0-.3-.1-.4-1.1-.7-1.8-1.7-2.1-2.8-.2,0-.4,0-.6,0-.4.6-1.2,1.8-.4,2.8s2.3.7,3.2.5Z"/>
</svg>