<?xml version="1.0" encoding="UTF-8"?>
<svg id="Layer_1" xmlns="http://www.w3.org/2000/svg" width="236" height="250" version="1.1" viewBox="0 0 236 250">
  <!-- Generator: Adobe Illustrator 30.8.2, SVG Export Plug-In . SVG Version: 2.1.4 Build 7)  -->
  <defs>
    <style>
      .st0 {
        fill: #231f20;
      }

      .st1 {
        fill: #fff;
      }
    </style>
  </defs>
  <path class="st1" d="M12,200.6c-16.8,15.1,2.9,15.1,18,27.3,15.1,12.2,64.4-5.8,72.5,6.4,23.2,34.8,48.1-14.5,84.7-5.2,7,3.5,81.2-5.8,24.9-37.1-56.2-31.3-18.6-63.8-23.2-95.1-4.6-31.3-1.2-99.2-66.7-95.1-59.1,9.9-59.1,56.2-58.6,85.2,1.7,55.7-31.9,95.7-51.6,113.6h0Z"/>
  <ellipse class="st0" cx="106.6" cy="72.5" rx="8.1" ry="9.9"/>
  <ellipse class="st0" cx="128" cy="58" rx="8.1" ry="9.9"/>
  <path class="st0" d="M111.8,94.5l29.6-21.5s13.3,15.1-2.9,29-26.7-7.5-26.7-7.5Z"/>
</svg>